<svg width="19" height="25" viewBox="0 0 19 25" xmlns="http://www.w3.org/2000/svg"><title>tutorails</title><g stroke="#01303A" fill="none" fill-rule="evenodd" stroke-linecap="round" stroke-linejoin="round"><path d="M16 4L16 0 2 0C.895 0 0 .8955 0 2 0 3.1045.895 4 2 4L17 4 17 23 2 23C.895 23 0 22.1045 0 21L0 2M10 8L13.8460321 8M10 13.5L13.8460321 13.5" transform="translate(1 1)"/><path transform="rotate(1 -376.911 144.404)" d="M1 2.76775251L2.09886631 3.94625419 4.8460321 1"/><path transform="rotate(1 -376.911 149.904)" d="M1 8.26775251L2.09886631 9.44625419 4.8460321 6.5"/><path transform="rotate(1 -376.911 155.404)" d="M1 13.7677525L2.09886631 14.9462542 4.8460321 12"/><path d="M10,19 L13.8460321,19" transform="translate(1 1)"/></g></svg>