<svg width="19" height="25" viewBox="0 0 19 25" xmlns="http://www.w3.org/2000/svg"><title>getting-started</title><g stroke="#01303A" fill="none" fill-rule="evenodd" stroke-linecap="round" stroke-linejoin="round"><path d="M2 2L14 2 14 4" transform="translate(1 1)"/><path d="M16,4 L16,0 L2,0 C0.895,0 0,0.8955 0,2 C0,3.1045 0.895,4 2,4 L17,4 L17,23 L2,23 C0.895,23 0,22.1045 0,21 L0,2" transform="translate(1 1)"/><path d="M8.5 7.4873L10 11.9998 14.5 11.9998 11 14.4998 12.5 18.9998 8.5 16.4998 4.5 18.9998 6 14.4998 2.5 11.9998 7 11.9998z" transform="translate(1 1)"/></g></svg>