<svg width="19" height="25" viewBox="0 0 19 25" xmlns="http://www.w3.org/2000/svg"><title>contribute</title><g stroke="#01303A" fill="none" fill-rule="evenodd" stroke-linecap="round" stroke-linejoin="round"><path d="M16,4 L16,0 L2,0 C0.895,0 0,0.8955 0,2 C0,3.1045 0.895,4 2,4 L17,4 L17,23 L2,23 C0.895,23 0,22.1045 0,21 L0,2" transform="translate(1 1)"/><path d="M7 2.5C7 3.8805 5.881 5 4.5 5 3.12 5 2 3.8805 2 2.5 2 1.119 3.12 0 4.5 0 5.881 0 7 1.119 7 2.5L7 2.5zM4.5 5C2.843 5 0 6.1345 0 10L9 10C9 6.1345 6.1565 5 4.5 5L4.5 5z" transform="translate(5 9.5)"/></g></svg>