<svg width="16" height="16" viewBox="0 0 16 16" xmlns="http://www.w3.org/2000/svg" xmlns:xlink="http://www.w3.org/1999/xlink"><title>cal</title><defs><path d="M0 13.817V1.201C0 .55.504.02 1.125.02h12.75C14.496.019 15 .549 15 1.2v12.616C15 14.47 14.496 15 13.875 15H1.125C.504 15 0 14.47 0 13.817z" id="cal-a"/><mask id="cal-b" x="0" y="0" width="15" height="14.981" fill="#fff"><use xlink:href="#cal-a"/></mask></defs><g transform="translate(0 1)" fill="none" fill-rule="evenodd"><path fill="#02303A" d="M0 4h15v1H0z"/><use stroke="#02303A" mask="url(#cal-b)" stroke-width="2" stroke-linecap="round" stroke-linejoin="round" xlink:href="#cal-a"/><path fill="#02303A" d="M2 12h1v1H2zM2 10h1v1H2zM2 8h1v1H2zM4 12h1v1H4zM4 10h1v1H4zM4 8h1v1H4zM6 12h1v1H6zM6 10h1v1H6zM6 8h1v1H6zM6 6h1v1H6zM8 12h1v1H8zM8 10h1v1H8zM8 8h1v1H8zM8 6h1v1H8zM10 10h1v1h-1zM10 8h1v1h-1zM10 6h1v1h-1zM12 10h1v1h-1zM12 8h1v1h-1zM12 6h1v1h-1z"/></g></svg>