<svg width="20" height="20" viewBox="0 0 20 20" xmlns="http://www.w3.org/2000/svg" xmlns:xlink="http://www.w3.org/1999/xlink"><title>documentation</title><defs><rect id="documentation-a" x="1" y="1" width="14" height="18" rx="1"/><mask id="documentation-g" x="0" y="0" width="14" height="18" fill="#fff"><use xlink:href="#documentation-a"/></mask><rect id="documentation-b" x="5" y="4" width="7" height="5" rx="1"/><mask id="documentation-h" x="0" y="0" width="7" height="5" fill="#fff"><use xlink:href="#documentation-b"/></mask><path d="M15 4h1c.553 0 1.001.444 1.001 1v1H15V4z" id="documentation-c"/><mask id="documentation-i" x="-1" y="-1" width="4.001" height="4"><path fill="#fff" d="M14 3h4.001v4H14z"/><use xlink:href="#documentation-c"/></mask><path id="documentation-d" d="M15 7h2.001v2H15z"/><mask id="documentation-j" x="-1" y="-1" width="4.001" height="4"><path fill="#fff" d="M14 6h4.001v4H14z"/><use xlink:href="#documentation-d"/></mask><path id="documentation-e" d="M15 10h2.001v2H15z"/><mask id="documentation-k" x="-1" y="-1" width="4.001" height="4"><path fill="#fff" d="M14 9h4.001v4H14z"/><use xlink:href="#documentation-e"/></mask><path d="M15 13h2.001v1c0 .552-.444 1-1 1H15v-2z" id="documentation-f"/><mask id="documentation-l" x="-1" y="-1" width="4.001" height="4"><path fill="#fff" d="M14 12h4.001v4H14z"/><use xlink:href="#documentation-f"/></mask></defs><g stroke="#01303A" stroke-width="2" fill="none" fill-rule="evenodd"><use mask="url(#documentation-g)" xlink:href="#documentation-a"/><use mask="url(#documentation-h)" xlink:href="#documentation-b"/><use mask="url(#documentation-i)" xlink:href="#documentation-c"/><use mask="url(#documentation-j)" xlink:href="#documentation-d"/><use mask="url(#documentation-k)" xlink:href="#documentation-e"/><use mask="url(#documentation-l)" xlink:href="#documentation-f"/></g></svg>