<svg width="20" height="20" viewBox="0 0 20 20" xmlns="http://www.w3.org/2000/svg"><title>email</title><g stroke="#01303A" fill="none" fill-rule="evenodd" stroke-linecap="round" stroke-linejoin="round"><path d="M14.49 6.377l-1.957 5.435s-.833 2.087.782 2.184c1.615.098 4.568-2.184 4.568-5.288 0-3.882-3.133-6.213-7.7-6.213-4.697 0-7.83 3.882-7.83 7.765 0 3.882 3.133 7.765 7.83 7.765s7.048-3.106 7.048-3.106"/><path d="M12.532 11.812c-.57 1.456-2.12 2.752-3.883 2.752-1.402 0-2.773-.776-2.773-2.784 0-3.8 2.949-5.401 5.09-5.401 2.22 0 2.907 1.712 2.37 3.2"/></g></svg>