<svg width="82" height="82" viewBox="0 0 82 82" fill="none" xmlns="http://www.w3.org/2000/svg">
<path fill-rule="evenodd" clip-rule="evenodd" d="M40.8607 79.2702C19.8522 79.2702 2.76233 62.1739 2.76233 41.1588C2.76233 20.1423 19.8522 3.04464 40.8607 3.04464C42.8472 3.04464 44.8066 3.19437 46.7251 3.49383C41.8131 5.07279 35.6766 7.89177 36.0712 12.11C36.2753 14.2893 37.2686 15.9758 38.8469 16.8605C40.4797 17.7603 42.5751 17.7181 44.7249 16.7108C45.174 17.7603 45.2012 21.0257 44.793 24.4423C43.8813 24.5648 42.8745 24.7962 41.8268 25.0412C38.8333 25.7367 35.4453 26.5248 33.5267 25.0003C33.3771 24.5375 33.0777 23.94 32.411 23.3942C30.7646 22.0466 27.744 21.8016 23.4307 22.6591C13.8789 24.5648 13.77 37.1828 13.77 37.7287C13.77 40.5708 15.1307 45.9501 20.274 45.9501C21.1856 45.9501 22.0972 45.8957 22.9681 45.8535C25.2131 45.7187 27.3358 45.5962 28.3018 46.5205C28.9005 47.0799 29.1999 48.1661 29.1999 49.7328C29.1999 50.1003 29.3495 50.442 29.6081 50.7006C31.1728 52.2646 32.6151 54.2655 32.6423 54.893C32.6423 55.4225 32.2886 56.1167 31.9212 56.8517C31.4586 57.791 30.9143 58.8527 30.9143 60.0369C30.9143 61.9698 34.4792 69.9734 37.4318 69.9734C44.4664 69.9734 48.6572 66.708 49.0518 60.9489C50.1131 60.4602 51.9772 59.4108 53.8277 57.5596C54.6713 56.7292 55.0795 55.8445 55.0523 54.9733C54.9979 53.6394 54.0046 52.7682 53.2699 52.1285C53.0522 51.9529 52.7392 51.6657 52.5895 51.5296C52.9161 51.0545 53.8005 50.1425 54.5217 49.3925C57.6512 46.1244 62.8897 40.681 58.9846 36.7622C58.5628 36.3525 57.9369 36.2436 57.4063 36.5036C56.6579 36.8834 54.9571 37.4142 54.0727 36.9365C53.2563 33.8085 52.331 31.6578 51.3105 30.5008C53.1202 29.3711 57.1205 27.7485 61.1208 28.7436C61.4338 28.8252 61.7604 28.7844 62.0597 28.6483C67.1349 26.1029 69.5977 20.7126 70.659 17.4594C75.8431 23.9658 78.959 32.2009 78.959 41.1588C78.959 62.1739 61.8692 79.2702 40.8607 79.2702ZM68.5364 14.9957C68.033 17.0375 66.1281 23.2594 61.2569 25.9817C55.2972 24.7553 49.5145 28.0099 48.2899 29.5058C47.6231 30.3225 47.8 31.0031 47.9497 31.3434C48.181 31.8321 48.6436 32.1465 49.2151 32.2009C49.8274 32.7726 50.8887 35.4269 51.5554 38.054C51.6099 38.299 51.7323 38.5181 51.9092 38.6815C53.5828 40.3544 56.0728 39.8779 57.5151 39.4015C58.2227 41.3616 55.4741 44.4664 52.5623 47.5005C50.5894 49.5423 49.8002 50.4134 49.8002 51.4493C49.8002 52.7138 50.7254 53.5318 51.4738 54.1838C51.7595 54.4302 52.2902 54.8794 52.331 55.055C52.331 55.055 52.2902 55.2469 51.9092 55.6403C49.6233 57.9257 47.3102 58.7302 47.2966 58.7438C46.7387 58.9357 46.3577 59.4516 46.3577 60.0369C46.3577 64.7874 43.4051 67.2239 37.5543 67.2525C36.3977 66.5855 33.6628 61.3041 33.6356 60.0369C33.6356 59.4924 33.9894 58.7982 34.3568 58.0646C34.8194 57.1253 35.3636 56.0623 35.3636 54.893C35.3636 53.0132 33.0641 50.3739 31.9212 49.1747C31.8259 47.0799 31.2545 45.554 30.1795 44.5331C28.3563 42.8181 25.6622 42.9692 22.8184 43.1311C21.9884 43.172 21.1312 43.2278 20.274 43.2278C16.5594 43.2278 16.4913 37.9451 16.4913 37.7287C16.4913 37.6184 16.573 26.8107 23.9749 25.327C29.4312 24.2367 30.8463 25.4359 30.9143 25.7068C30.9143 26.0757 31.064 26.4173 31.3225 26.6746C34.2479 29.6025 38.7925 28.5407 42.439 27.6955C43.8269 27.3688 45.1195 27.0693 46.004 27.0693C46.6843 27.0693 47.2558 26.5657 47.351 25.8987C47.8817 22.2508 48.4259 15.8941 46.2217 14.3029C45.7999 14.0021 44.9018 13.5801 43.6772 14.1926C42.3302 14.8732 41.0512 14.9699 40.1804 14.4771C39.1735 13.934 38.8605 12.7498 38.7789 11.8514C38.5204 9.07599 46.5754 6.05283 52.331 4.81416C58.5764 6.78786 64.1279 10.3405 68.5364 14.9957ZM71.1625 13.8251C71.1353 13.7843 71.0945 13.7571 71.0672 13.7312C66.1825 8.32598 59.8554 4.25608 52.7256 2.07821C52.6984 2.07821 52.6712 2.0646 52.644 2.0646C48.9022 0.934824 44.9563 0.323658 40.8607 0.323658C18.3554 0.323658 0.0410156 18.6437 0.0410156 41.1588C0.0410156 63.6712 18.3554 81.9939 40.8607 81.9939C63.3659 81.9939 81.6804 63.6712 81.6804 41.1588C81.6804 30.6492 77.6936 21.0666 71.1625 13.8251Z" fill="url(#paint0_linear)"/>
<defs>
<linearGradient id="paint0_linear" x1="0.0410156" y1="0.323658" x2="81.7113" y2="81.963" gradientUnits="userSpaceOnUse">
<stop stop-color="#06A0CE"/>
<stop offset="1" stop-color="#51CBBF"/>
</linearGradient>
</defs>
</svg>
