<svg width="20" height="20" viewBox="0 0 20 20" xmlns="http://www.w3.org/2000/svg" xmlns:xlink="http://www.w3.org/1999/xlink"><title>installation</title><defs><path d="M0 15h20v2.995A2.002 2.002 0 0 1 18.01 20H1.99C.892 20 0 19.106 0 17.995V15z" id="installation-a"/><mask id="installation-c" x="0" y="0" width="20" height="5" fill="#fff"><use xlink:href="#installation-a"/></mask><rect id="installation-b" x="9.5" y="1" width="1" height="9" rx=".5"/><mask id="installation-d" x="0" y="0" width="1" height="9" fill="#fff"><use xlink:href="#installation-b"/></mask></defs><g fill="none" fill-rule="evenodd"><circle fill="#01303A" cx="17.5" cy="17.5" r=".5"/><circle fill="#01303A" cx="15.5" cy="17.5" r=".5"/><circle fill="#01303A" cx="13.5" cy="17.5" r=".5"/><circle stroke="#01303A" fill="#01303A" cx="2.5" cy="17.5" r=".5"/><use stroke="#01303A" mask="url(#installation-c)" stroke-width="2" xlink:href="#installation-a"/><g stroke-linecap="round" stroke="#01303A" stroke-linejoin="round"><path d="M13.5 3.5h2.478L19.5 8" transform="translate(0 7)"/><path transform="matrix(-1 0 0 1 6.5 7)" d="M.5 3.5h2.478L6 8"/><path d="M13.317.052l-3.304 3.5-3.305-3.5" transform="translate(0 7)"/></g><use stroke="#01303A" mask="url(#installation-d)" stroke-width="2" xlink:href="#installation-b"/></g></svg>