<svg width="20" height="20" viewBox="0 0 20 20" xmlns="http://www.w3.org/2000/svg" xmlns:xlink="http://www.w3.org/1999/xlink"><title>meetups</title><defs><rect id="meetups-a" y="3" width="20.086" height="16" rx="1"/><mask id="meetups-b" x="0" y="0" width="20.086" height="16" fill="#fff"><use xlink:href="#meetups-a"/></mask></defs><g stroke="#01303A" fill="none" fill-rule="evenodd"><path d="M7.843 9.126c1.867 0 3.304.556 4.459 1.002.788.305 1.468.567 2.065.567.685 0 1.242-.703 1.242-1.569 0-.26-.099-.625-.214-1.05-.181-.666-.407-1.496-.407-2.48 0-.985.226-1.814.407-2.481.115-.424.214-.79.214-1.05 0-.865-.557-1.569-1.242-1.569-.597 0-1.277.263-2.065.568-1.155.446-2.592 1.001-4.459 1.001-1.866 0-3.303-.555-4.458-1.001C2.597.759 1.917.496 1.32.496.635.496.077 1.2.077 2.066c0 .26.1.625.215 1.049C.473 3.782.7 4.61.7 5.595c0 .985-.226 1.815-.407 2.482-.115.424-.215.79-.215 1.05 0 .865.558 1.568 1.243 1.568.597 0 1.277-.262 2.065-.567 1.155-.446 2.592-1.002 4.458-1.002z" transform="translate(2.232 5.529)"/><use mask="url(#meetups-b)" stroke-width="2" xlink:href="#meetups-a"/></g></svg>