<svg width="20" height="20" viewBox="0 0 20 20" xmlns="http://www.w3.org/2000/svg" xmlns:xlink="http://www.w3.org/1999/xlink"><title>news</title><defs><path id="news-a" d="M19 20H0V1h19z"/><mask id="news-c" x="0" y="0" width="19" height="19" fill="#fff"><use xlink:href="#news-a"/></mask><path id="news-b" d="M10 3h7v7h-7z"/><mask id="news-d" x="0" y="0" width="7" height="7" fill="#fff"><use xlink:href="#news-b"/></mask></defs><g fill="none" fill-rule="evenodd"><use stroke="#01303A" mask="url(#news-c)" stroke-width="2" stroke-linecap="round" stroke-linejoin="round" xlink:href="#news-a"/><use stroke="#01303A" mask="url(#news-d)" stroke-width="2" xlink:href="#news-b"/><path fill="#01303A" d="M2 3h5v1H2zM2 5h6v1H2zM2 7h3v1H2zM2 9h6v1H2zM2 11h12v1H2zM2 13h10v1H2zM2 15h11v1H2zM2 17h9v1H2z"/></g></svg>