<svg width="20" height="20" viewBox="0 0 20 20" xmlns="http://www.w3.org/2000/svg"><title>phone</title><path d="M7.615 6.163a1.847 1.847 0 0 0 0-2.638L5.608 1.547a1.912 1.912 0 0 0-2.677 0l-1.1 1.085a2.764 2.764 0 0 0-.359 3.52c3.2 4.766 7.466 8.972 12.301 12.124a2.87 2.87 0 0 0 3.572-.353l1.1-1.085c.74-.728.74-1.91 0-2.638l-2.006-1.978a1.913 1.913 0 0 0-2.677 0l-.669.659a44.582 44.582 0 0 1-6.147-6.059l.67-.66z" stroke="#01303A" fill="none" stroke-linecap="round" stroke-linejoin="round"/></svg>