<svg width="20" height="20" viewBox="0 0 20 20" xmlns="http://www.w3.org/2000/svg" xmlns:xlink="http://www.w3.org/1999/xlink"><title>training</title><defs><rect id="training-a" x="10" y="9" width="5" height="1" rx=".5"/><mask id="training-d" x="0" y="0" width="5" height="1" fill="#fff"><use xlink:href="#training-a"/></mask><rect id="training-b" x="10" y="12" width="5" height="1" rx=".5"/><mask id="training-e" x="0" y="0" width="5" height="1" fill="#fff"><use xlink:href="#training-b"/></mask><rect id="training-c" x="10" y="15" width="5" height="1" rx=".5"/><mask id="training-f" x="0" y="0" width="5" height="1" fill="#fff"><use xlink:href="#training-c"/></mask></defs><g stroke="#01303A" fill="none" fill-rule="evenodd"><g stroke-linecap="round" stroke-linejoin="round"><path d="M.5 19.5V.5h8l6 5v14z" transform="translate(2)"/><path d="M8.5.5v5H14M5.765 7.938l-2.06 1.979-1.234-1.188M5.765 11.5l-2.06 1.98-1.234-1.188M5.765 15.063l-2.06 1.979-1.234-1.188" transform="translate(2)"/></g><use mask="url(#training-d)" stroke-width="2" fill="#D8D8D8" xlink:href="#training-a"/><use mask="url(#training-e)" stroke-width="2" fill="#D8D8D8" xlink:href="#training-b"/><use mask="url(#training-f)" stroke-width="2" fill="#D8D8D8" xlink:href="#training-c"/></g></svg>