<svg width="20" height="20" viewBox="0 0 20 20" xmlns="http://www.w3.org/2000/svg"><title>videos</title><g stroke="#01303A" fill="none" fill-rule="evenodd"><path d="M19.19 7.013s-.176-1.256-.764-1.77c-.705-.684-1.528-.741-1.88-.741-2.645-.171-6.582-.171-6.582-.171s-3.937 0-6.582.171c-.352.057-1.175.057-1.88.742-.588.513-.764 1.769-.764 1.769S.562 8.497.562 9.923V11.293c0 1.427.176 2.91.176 2.91s.176 1.256.764 1.77c.705.684 1.645.684 2.057.741 1.528.115 6.405.172 6.405.172s3.937 0 6.582-.172c.352-.057 1.175-.057 1.88-.741.588-.514.764-1.77.764-1.77s.176-1.426.176-2.91v-1.37c0-1.426-.176-2.91-.176-2.91z"/><path d="M8.224 13.193c-.1.047-.18.002-.18-.122v-4.42c0-.115.087-.166.18-.122l4.706 2.246c.1.047.092.128 0 .172l-4.706 2.246z"/></g></svg>