<svg width="15" height="15" viewBox="0 0 15 15" xmlns="http://www.w3.org/2000/svg"><title>pre-recorded</title><g stroke="#02303A" fill="none" fill-rule="evenodd"><path d="M10.5 9.86363636L13.6818182 7.95454545 13.6818182 13.0454545 10.5 11.1363636M4.13636364 4.13636364C4.13636364 3.08190909 3.28172727 2.22727273 2.22727273 2.22727273 1.17281818 2.22727273.318181818 3.08190909.318181818 4.13636364.318181818 5.19081818 1.17281818 6.04545455 2.22727273 6.04545455 3.28172727 6.04545455 4.13636364 5.19081818 4.13636364 4.13636364L4.13636364 4.13636364zM11.1363636 3.18181818C11.1363636 1.60013636 9.85440909.318181818 8.27272727.318181818 6.69104545.318181818 5.40909091 1.60013636 5.40909091 3.18181818 5.40909091 4.7635 6.69104545 6.04545455 8.27272727 6.04545455 9.85440909 6.04545455 11.1363636 4.7635 11.1363636 3.18181818L11.1363636 3.18181818z" transform="translate(1 1)" stroke-linecap="round" stroke-linejoin="round"/><rect x="2.5" y="8.5" width="9" height="6" rx="1"/></g></svg>